<svg width="165" height="24" viewBox="0 0 165 24" fill="none" xmlns="http://www.w3.org/2000/svg">
<path d="M8.45611 7.09564C3.79694 7.09564 0 10.8847 0 15.5438C0 18.3599 0 21.176 0 23.992C0.917594 23.992 1.82728 23.992 2.74487 23.992C2.74487 21.176 2.74487 18.3599 2.74487 15.5438C2.74487 12.3955 5.2999 9.8326 8.4482 9.8326C11.5965 9.8326 14.1594 12.3955 14.1594 15.5438C14.1594 18.3599 14.1594 21.176 14.1594 23.992C15.077 23.992 15.9867 23.992 16.9043 23.992C16.9043 21.176 16.9043 18.3599 16.9043 15.5438C16.9043 10.8847 13.1153 7.09564 8.45611 7.09564Z" fill="white"/>
<path d="M122.206 8.46402C122.206 13.6374 122.206 18.8186 122.206 23.9919C123.124 23.9919 124.034 23.9919 124.951 23.9919C124.951 21.6347 124.951 19.2695 124.951 16.9122C127.308 16.9122 129.674 16.9122 132.031 16.9122C132.031 15.9946 132.031 15.0849 132.031 14.1673C129.674 14.1673 127.308 14.1673 124.951 14.1673C124.951 12.261 124.951 10.3625 124.951 8.45611C124.951 5.30782 127.506 2.74488 130.654 2.74488C131.113 2.74488 131.572 2.74488 132.031 2.74488C132.031 1.82729 132.031 0.917594 132.031 0C131.572 0 131.113 0 130.654 0C125.995 0.0158206 122.206 3.80486 122.206 8.46402Z" fill="white"/>
<path d="M107.572 7.09564C102.913 7.09564 99.1158 10.8847 99.1158 15.5438C99.1158 20.203 102.905 23.992 107.572 23.992C107.785 23.992 107.991 23.992 108.205 23.992C108.205 23.0744 108.205 22.1648 108.205 21.2472C107.991 21.2472 107.785 21.2472 107.572 21.2472C104.424 21.2472 101.861 18.6842 101.861 15.5359C101.861 12.3876 104.424 9.82469 107.572 9.82469C110.72 9.82469 113.275 12.3876 113.275 15.5359C113.275 18.352 113.275 21.168 113.275 23.9841C114.193 23.9841 115.102 23.9841 116.02 23.9841C116.02 21.168 116.02 18.352 116.02 15.5359C116.028 10.8847 112.239 7.09564 107.572 7.09564Z" fill="white"/>
<path d="M86.3322 7.09564C83.4687 7.09564 80.795 8.59068 79.2525 10.9717C77.7021 8.58277 75.0442 7.09564 72.1728 7.09564C67.5136 7.09564 63.7246 10.8847 63.7246 15.5438C63.7246 18.3599 63.7246 21.176 63.7246 23.992C64.6422 23.992 65.5519 23.992 66.4695 23.992C66.4695 21.176 66.4695 18.3599 66.4695 15.5438C66.4695 12.3955 69.0245 9.8326 72.1728 9.8326C75.3211 9.8326 77.8761 12.3955 77.8761 15.5438C77.8761 18.3599 77.8761 21.176 77.8761 23.992C78.7937 23.992 79.7034 23.992 80.621 23.992C80.621 21.176 80.621 18.3599 80.621 15.5438C80.621 12.3955 83.1839 9.8326 86.3322 9.8326C89.4805 9.8326 92.0356 12.3955 92.0356 15.5438C92.0356 18.3599 92.0356 21.176 92.0356 23.992C92.9532 23.992 93.8628 23.992 94.7804 23.992C94.7804 21.176 94.7804 18.3599 94.7804 15.5438C94.7883 10.8847 90.9993 7.09564 86.3322 7.09564Z" fill="white"/>
<path d="M56.6379 15.5436C56.6379 18.6919 54.075 21.2549 50.9346 21.2549C47.7863 21.2549 45.2313 18.6919 45.2313 15.5436C45.2313 12.9728 45.2313 10.4019 45.2313 7.83109C44.3137 7.83109 43.404 7.83109 42.4864 7.83109C42.4864 10.4019 42.4864 12.9728 42.4864 15.5436C42.4864 20.2028 46.2754 23.9918 50.9346 23.9918C55.5937 23.9918 59.3828 20.2028 59.3828 15.5436C59.3828 12.9728 59.3828 10.4019 59.3828 7.83109C58.4652 7.83109 57.5555 7.83109 56.6379 7.83109C56.6379 10.4019 56.6379 12.9728 56.6379 15.5436Z" fill="white"/>
<path d="M38.1434 15.5438C38.1434 10.8847 34.3543 7.09564 29.6952 7.09564C25.036 7.09564 21.2391 10.8847 21.2391 15.5438C21.2391 20.203 25.0281 23.992 29.6952 23.992C32.266 23.992 34.8369 23.992 37.4077 23.992C37.4077 23.0744 37.4077 22.1648 37.4077 21.2472C34.8369 21.2472 32.266 21.2472 29.6952 21.2472C27.0373 21.2472 24.7671 19.4278 24.1501 16.9123C28.8171 16.9123 33.4763 16.9123 38.1434 16.9123C38.1434 16.4614 38.1434 16.0026 38.1434 15.5438ZM24.1501 14.1754C24.7671 11.6599 27.0373 9.84052 29.6952 9.84052C32.3451 9.84052 34.6233 11.6599 35.2403 14.1754C31.5383 14.1754 27.8442 14.1754 24.1501 14.1754Z" fill="white"/>
<path d="M140.962 7.08743H138.217V23.9917H140.962V7.08743Z" fill="white"/>
<path d="M156.964 14.1754V7.09564H154.219V14.1754H147.139V16.9123H154.219V23.9999H156.964V16.9123H164.043V14.1754H156.964Z" fill="white"/>
</svg>
